<svg width="386" height="319" viewBox="0 0 386 319" fill="none" xmlns="http://www.w3.org/2000/svg">
<path fill-rule="evenodd" clip-rule="evenodd" d="M242.078 282C321.284 282 385.493 218.872 385.493 141C385.493 63.1278 321.284 0 242.078 0C162.871 0 98.6619 63.1278 98.6619 141C98.6619 218.872 162.871 282 242.078 282ZM242.077 235C294.882 235 337.688 192.915 337.688 141C337.688 89.0854 294.882 47.0001 242.077 47.0001C189.273 47.0001 146.467 89.0854 146.467 141C146.467 192.915 189.273 235 242.077 235Z" fill="url(#paint0_linear_70_4)" fill-opacity="0.4"/>
<path fill-rule="evenodd" clip-rule="evenodd" d="M233.784 210.003C233.624 213.056 233.343 216.079 232.946 219.065L101.647 89.9779C104.685 89.5871 107.759 89.311 110.865 89.154L233.784 210.003ZM90.828 91.883C93.9698 91.1778 97.1598 90.597 100.392 90.1461L232.775 220.299C232.316 223.477 231.725 226.613 231.008 229.702L90.828 91.883ZM225.163 247.786C226.153 245.425 227.065 243.024 227.896 240.587L79.7564 94.9423C77.2775 95.7596 74.8357 96.6563 72.434 97.6293L225.163 247.786ZM71.428 98.0423C68.803 99.1343 66.227 100.318 63.7041 101.589L221.136 256.369C222.429 253.889 223.633 251.356 224.743 248.775L71.428 98.0423ZM231.695 181.462C230.771 176.89 229.571 172.415 228.113 168.055L153.531 94.7292C149.097 93.2958 144.545 92.1161 139.894 91.2076L231.695 181.462ZM138.132 90.8771C133.888 90.1148 129.565 89.5776 125.175 89.2785L233.657 195.934C233.353 191.618 232.807 187.367 232.031 183.195L138.132 90.8771ZM233.94 204C233.94 205.561 233.909 207.116 233.846 208.662L112.229 89.0928C113.801 89.0311 115.382 89 116.97 89C119.213 89 121.441 89.0621 123.653 89.1845L233.753 197.43C233.877 199.604 233.94 201.795 233.94 204ZM230.738 230.839C230.022 233.782 229.191 236.682 228.25 239.533L80.8288 94.5945C83.7285 93.6692 86.6779 92.8523 89.6719 92.1486L230.738 230.839ZM217.354 144.935C221.379 151.533 224.75 158.561 227.38 165.932L155.691 95.4505C163.188 98.0353 170.336 101.35 177.047 105.307L217.354 144.935ZM62.7646 102.067C60.3064 103.333 57.8995 104.683 55.5481 106.112L216.535 264.388C217.989 262.076 219.362 259.709 220.649 257.293L62.7646 102.067ZM215.987 265.251L54.6701 106.651C52.6249 107.919 50.6225 109.247 48.6655 110.634L211.936 271.154C213.346 269.23 214.697 267.261 215.987 265.251ZM211.336 271.966L47.8397 111.224C45.6692 112.79 43.5557 114.428 41.5027 116.134L206.342 278.196C208.077 276.178 209.743 274.1 211.336 271.966ZM180.863 107.656C194.454 116.386 206.085 127.821 214.965 141.184L180.863 107.656ZM0.201761 197.189C0.404336 193.779 0.758021 190.409 1.25633 187.086L134.175 317.765C130.794 318.255 127.366 318.602 123.898 318.802L0.201761 197.189ZM0.130424 198.521L122.543 318.872C120.696 318.957 118.838 319 116.97 319C115.485 319 114.007 318.973 112.536 318.919L0.0825035 208.36C0.0276636 206.913 0 205.46 0 204C0 202.163 0.0437982 200.337 0.130424 198.521ZM0.147487 209.826L111.045 318.855C106.763 318.645 102.542 318.209 98.3942 317.558L1.46686 222.263C0.804944 218.185 0.361111 214.035 0.147487 209.826ZM1.75321 223.947L96.6817 317.276C91.562 316.396 86.5568 315.189 81.6892 313.676L5.41476 238.687C3.87675 233.901 2.64853 228.98 1.75321 223.947ZM6.10632 240.769C8.53454 247.848 11.6447 254.619 15.3599 261.007L58.987 303.899C65.4836 307.551 72.3707 310.609 79.5715 312.997L6.10632 240.769ZM17.4586 264.472C27.0092 279.631 40.0433 292.446 55.4621 301.835L17.4586 264.472ZM5.90448 167.825C5.05856 170.337 4.29833 172.887 3.62719 175.472L145.987 315.434C148.616 314.774 151.21 314.027 153.765 313.195L5.90448 167.825ZM144.846 315.714L3.34208 176.594C2.58463 179.64 1.95058 182.734 1.44545 185.869L135.412 317.579C138.601 317.082 141.748 316.459 144.846 315.714ZM6.26356 166.776C7.2128 164.046 8.26354 161.363 9.41134 158.731L163.015 309.747C160.337 310.876 157.608 311.909 154.832 312.842L6.26356 166.776ZM34.1201 122.82C32.4462 124.472 30.823 126.173 29.2531 127.921L194.353 290.24C196.131 288.696 197.861 287.1 199.541 285.455L34.1201 122.82ZM193.592 290.894L28.5874 128.669C26.8281 130.662 25.1374 132.716 23.519 134.826L187.33 295.877C189.476 294.286 191.565 292.624 193.592 290.894ZM200.252 284.752L34.8351 122.121C36.7382 120.276 38.7054 118.494 40.733 116.779L205.685 278.953C203.941 280.947 202.129 282.881 200.252 284.752ZM186.514 296.477L22.909 135.628C21.2942 137.772 19.7534 139.973 18.2903 142.227L179.801 301.018C182.094 299.579 184.333 298.064 186.514 296.477ZM171.645 305.69C169.152 306.988 166.606 308.2 164.01 309.323L9.8431 157.753C10.9846 155.201 12.2178 152.697 13.5385 150.246L171.645 305.69ZM172.574 305.201L14.0358 149.333C15.2048 147.209 16.4398 145.127 17.7381 143.087L178.927 301.561C176.852 302.837 174.734 304.051 172.574 305.201Z" fill="url(#paint1_linear_70_4)" fill-opacity="0.4"/>
<defs>
<linearGradient id="paint0_linear_70_4" x1="156.531" y1="30.921" x2="320.156" y2="259.291" gradientUnits="userSpaceOnUse">
<stop stop-color="#ED7B50"/>
<stop offset="0.541667" stop-color="#488AEA"/>
<stop offset="1" stop-color="#2C2C2C"/>
</linearGradient>
<linearGradient id="paint1_linear_70_4" x1="47.1985" y1="114.219" x2="180.652" y2="300.478" gradientUnits="userSpaceOnUse">
<stop stop-color="#ED7B50"/>
<stop offset="0.541667" stop-color="#488AEA"/>
<stop offset="1" stop-color="#2C2C2C"/>
</linearGradient>
</defs>
</svg>
